<svg height="20" viewBox="0 0 20 20" width="20" xmlns="http://www.w3.org/2000/svg"><path d="m14.5 10c2.4853 0 4.5 2.0147 4.5 4.5s-2.0147 4.5-4.5 4.5-4.5-2.0147-4.5-4.5 2.0147-4.5 4.5-4.5zm0-7c1.325472 0 2.4100378 1.03153766 2.4946823 2.33562452l.0053177.16437548v4.09971c-.2376-.121455-.4852125-.22614187-.7412344-.31249547l-.2587656-.08018453v-3.70703c0-.77969882-.5949121-1.420449-1.3555442-1.49313345l-.1444558-.00686655h-9c-.77969882 0-1.420449.59488554-1.49313345 1.35553954l-.00686655.14446046v9c0 .7796706.59488554 1.4204457 1.35553954 1.4931332l.14446046.0068668h3.70703c.0739575.26145.16677.515025.27687234.7591219l.11580766.2408781h-4.09971c-1.3254816 0-2.41003853-1.0315469-2.49468231-2.3356256l-.00531769-.1643744v-9c0-1.3254816 1.03153766-2.41003853 2.33562452-2.49468231l.16437548-.00531769zm0 9c-.2454222 0-.4496.1769086-.4919429.4101355l-.0080571.0898645v1.5h-1.5c-.2761 0-.5.2239-.5.5 0 .2454222.1769086.4496.4101355.4919429l.0898645.0080571h1.5v1.5c0 .2761.2239.5.5.5.2454222 0 .4496-.1769086.4919429-.4101355l.0080571-.0898645v-1.5h1.5c.2761 0 .5-.2239.5-.5 0-.2454222-.1769086-.4496-.4101355-.4919429l-.0898645-.0080571h-1.5v-1.5c0-.2761-.2239-.5-.5-.5z" fill="#e2e2e2"/></svg>